# xmcd
#
# Track frame offsets:
#	150
#	39150
#	62475
#	92625
#	119179
#	146779
#	162254
#	190979
#	217979
#	244604
#	260354
#	297721
#	313973
#
# Disc length: 4642 seconds
#
# Revision: 0
# Processed by: cddbd v1.5.2PL0 Copyright (c) Steve Scherf et al.
# Submitted via: audiograbber 1.83.01
#
DISCID=c812200d
DTITLE=Jeff Kimes - Roots and Wings
DYEAR=2011
DGENRE=Folk
TTITLE0=One Didj
TTITLE1=One Taste
TTITLE2=Sevens
TTITLE3=Didgi Taal
TTITLE4=Holy Land
TTITLE5=Aboriginal Whomp
TTITLE6=Syncretisiac
TTITLE7=Duwaka
TTITLE8=Streets
TTITLE9=Moments of Insight
TTITLE10=Magnescence
TTITLE11=Mystic Journey
TTITLE12=Aqueous
EXTD=
EXTT0=
EXTT1=
EXTT2=
EXTT3=
EXTT4=
EXTT5=
EXTT6=
EXTT7=
EXTT8=
EXTT9=
EXTT10=
EXTT11=
EXTT12=
PLAYORDER=
